<svg width="61" height="60" viewBox="0 0 61 60" fill="none" xmlns="http://www.w3.org/2000/svg">
<path id="Path 2520" d="M51.6331 51.124H42.6542V37.2013C42.6542 33.8812 42.5944 29.6074 37.9843 29.6074C33.3078 29.6074 32.5923 33.2247 32.5923 36.9596V51.1231H23.6134V22.4922H32.2331V26.4049H32.3538C33.2164 24.9445 34.463 23.7432 35.9606 22.9287C37.4583 22.1143 39.151 21.7173 40.8585 21.7801C49.9589 21.7801 51.6369 27.707 51.6369 35.4176L51.6331 51.124ZM13.4823 18.5786C12.4518 18.5788 11.4443 18.2764 10.5873 17.7096C9.73032 17.1429 9.06238 16.3372 8.66783 15.3946C8.27329 14.4519 8.16989 13.4146 8.37076 12.4138C8.57163 11.4129 9.06773 10.4936 9.79631 9.7719C10.5249 9.05025 11.4532 8.55871 12.4639 8.35946C13.4747 8.16021 14.5223 8.26219 15.4745 8.65251C16.4267 9.04284 17.2406 9.70396 17.8132 10.5523C18.3859 11.4006 18.6917 12.398 18.6919 13.4184C18.692 14.096 18.5574 14.7669 18.2956 15.3929C18.0339 16.0189 17.6502 16.5877 17.1665 17.0668C16.6827 17.546 16.1083 17.9261 15.4762 18.1855C14.8441 18.4449 14.1666 18.5785 13.4823 18.5786ZM17.9717 51.124H8.98352V22.4922H17.9717V51.124ZM56.1094 0.0040879H4.47166C3.29963 -0.00900821 2.17024 0.439159 1.33176 1.25011C0.49328 2.06105 0.014304 3.16843 0 4.32891V55.6702C0.0138144 56.8313 0.492509 57.9394 1.33096 58.7512C2.16941 59.563 3.29905 60.012 4.47166 59.9997H56.1094C57.2844 60.0142 58.4172 59.5665 59.2589 58.7547C60.1007 57.9429 60.5826 56.8336 60.5988 55.6702V4.32521C60.5821 3.16243 60.0999 2.05379 59.2581 1.24286C58.4163 0.431933 57.2838 -0.0149536 56.1094 0.000382054" fill="#0A66C2"/>
</svg>
