<svg width="59" height="65" viewBox="0 0 59 65" fill="none" xmlns="http://www.w3.org/2000/svg">
<path id="Vector 3" d="M2.36763 33.3917C2.36763 28.01 0.470854 18.5206 5.29416 14.6619C8.58131 12.0322 10.5619 11.1348 10.5619 16.4178C10.5619 20.3632 10.5619 24.3087 10.5619 28.2541C10.5619 30.8988 10.5619 33.5435 10.5619 36.1882C10.5619 42.4026 16.2974 25.1532 18.8213 19.4745C22.3719 11.4854 28.9993 5.00226 37.421 2.37049C44.9925 0.00437725 44.0952 9.53985 43.209 14.857C41.4235 25.5705 29.3485 35.3289 20.4471 40.4154C14.7986 43.6432 32.6853 35.9739 38.6567 33.3917C44.296 30.9531 48.4031 31.5774 53.8746 32.2211C62.0064 33.1778 52.7562 45.4907 49.1922 47.179C44.4771 49.4124 37.9137 48.6097 32.8036 48.6097C25.3184 48.6097 32.0907 47.9033 35.1448 49.5202C38.3563 51.2204 52.5622 59.3383 45.6803 62.3969C40.4696 64.7128 30.2776 57.8823 25.7799 55.6334" stroke="#082160" stroke-width="3" stroke-linecap="round"/>
</svg>
