<svg width="63" height="68" viewBox="0 0 63 68" fill="none" xmlns="http://www.w3.org/2000/svg">
<path id="Vector 2" d="M15.1235 2.15371C10.5294 2.15371 4.04329 0.111876 4.04329 5.72401C4.04329 11.1923 5.7234 14.342 11.7995 14.342C13.0746 14.342 18.414 12.9746 17.3396 13.4802C15.2285 14.4736 11.9017 16.3004 9.58341 16.558C2.4574 17.3498 0.298814 26.3354 3.79706 31.4548C6.29273 35.107 12.2844 33.6886 15.616 32.0704C20.7286 29.5871 24.1729 26.9607 28.1736 22.9599C32.1253 19.0082 18.4157 28.5781 14.2617 32.3166C10.3504 35.8368 5.44602 40.0618 5.15131 45.3667C5.02703 47.6037 4.04329 49.5668 4.04329 52.0148C4.04329 55.3309 6.31441 54.0533 8.22916 55.5851C14.4778 60.584 33.5553 50.0291 33.9599 43.1506C34.0712 41.26 36.9048 37.4147 35.9298 42.4119C35.3785 45.2373 33.0142 47.985 32.8519 50.9068C32.5882 55.6541 31.2969 64.9169 38.392 65.3111C43.144 65.5751 46.4769 67.4852 49.2261 61.987C51.0755 58.2882 48.3643 53.7148 48.3643 50.2912C48.3643 47.87 48.3643 55.1337 48.3643 57.5549C48.3643 60.484 50.1471 59.2028 51.9346 60.6328C55.0212 63.1021 59.8236 57.5257 60.5525 55.3389" stroke="#A0C59E" stroke-width="3" stroke-linecap="round"/>
</svg>
