<svg width="59" height="64" viewBox="0 0 59 64" fill="none" xmlns="http://www.w3.org/2000/svg">
<path id="Vector 1" d="M2.57753 33.0166C2.57753 27.6348 0.680754 18.1455 5.50406 14.2868C8.79121 11.6571 10.7718 10.7597 10.7718 16.0427C10.7718 19.9881 10.7718 23.9335 10.7718 27.8789C10.7718 30.5236 10.7718 33.1684 10.7718 35.8131C10.7718 42.0275 16.5073 24.7781 19.0312 19.0993C22.5818 11.1103 29.2092 4.62714 37.6309 1.99536C45.2024 -0.370745 44.3051 9.16473 43.4189 14.4819C41.6334 25.1953 29.5584 34.9538 20.657 40.0403C15.0085 43.268 32.8952 35.5988 38.8666 33.0166C44.5059 30.578 48.613 31.2023 54.0845 31.846C62.2163 32.8027 52.9661 45.1156 49.4021 46.8038C44.687 49.0373 38.1236 48.2346 33.0135 48.2346C25.5283 48.2346 32.3006 47.5282 35.3547 49.1451C38.5662 50.8453 52.7721 58.9632 45.8902 62.0218C40.6795 64.3377 30.4875 57.5072 25.9898 55.2583" stroke="#A0C59E" stroke-width="3" stroke-linecap="round"/>
</svg>
