<svg width="13" height="20" viewBox="0 0 13 20" fill="none" xmlns="http://www.w3.org/2000/svg">
<g id="&#240;&#159;&#166;&#134; icon &#34;phone&#34;">
<path id="Vector" d="M0.474407 0C0.19975 0 0 0.19975 0 0.474407V19.5256C0 19.8002 0.19975 20 0.474407 20H12.035C12.3096 20 12.5094 19.8002 12.5094 19.5256V0.474407C12.5094 0.19975 12.3096 0 12.035 0L0.474407 0ZM2.49688 2.49688H9.98752V14.9813H2.49688V2.49688ZM6.2422 16.2297C6.94132 16.2297 7.49064 16.779 7.49064 17.4782C7.49064 18.1773 6.94132 18.7266 6.2422 18.7266C5.54307 18.7266 4.99376 18.1773 4.99376 17.4782C4.99376 16.779 5.54307 16.2297 6.2422 16.2297Z" fill="black"/>
</g>
</svg>
